<?xml version="1.0" encoding="utf-8"?>
<!-- Generator: Adobe Illustrator 25.0.0, SVG Export Plug-In . SVG Version: 6.00 Build 0)  -->
<svg version="1.1" id="Layer_1" xmlns="http://www.w3.org/2000/svg" xmlns:xlink="http://www.w3.org/1999/xlink" x="0px" y="0px"
	 viewBox="0 0 326.81 35.7" style="enable-background:new 0 0 326.81 35.7;" xml:space="preserve">
<style type="text/css">
	.st0{fill:#FFFFFF;}
</style>
<g>
	<path class="st0" d="M6.03,35.7H0V4.36C0,1.95,1.89,0,4.3,0h7.69c2.41,0,4.36,1.95,4.36,4.36V35.7h-6.08V20.54H6.03V35.7z
		 M10.27,6.03H6.03v8.55h4.25V6.03z"/>
	<path class="st0" d="M35.81,0h6.08v31.33c0,2.41-1.95,4.36-4.36,4.36h-7.58c-2.41,0-4.42-1.95-4.42-4.36V0h6.08v29.67h4.19V0z"/>
	<path class="st0" d="M63.07,0c2.41,0,4.36,1.95,4.36,4.3v27.03c0,2.41-1.95,4.36-4.36,4.36H51.07V0H63.07z M61.34,29.67V6.03h-4.19
		v23.64H61.34z"/>
	<path class="st0" d="M82.92,35.7H76.9V0h6.03V35.7z"/>
	<path class="st0" d="M104.38,0c2.41,0,4.36,1.95,4.36,4.3v27.03c0,2.41-1.95,4.36-4.36,4.36h-7.63c-2.41,0-4.36-1.95-4.36-4.36V4.3
		c0-2.35,1.95-4.3,4.36-4.3H104.38z M102.66,29.67V6.03h-4.19v23.64H102.66z"/>
	<path class="st0" d="M129.98,0c2.41,0,4.42,1.95,4.42,4.36V17.1c0,2.52-1.72,4.94-4.42,4.94h-5.97V35.7h-6.08V0H129.98z
		 M128.26,16.01V6.03h-4.25v9.99H128.26z"/>
	<path class="st0" d="M143,35.7V0h6.08v29.67h5.28v6.03H143z"/>
	<path class="st0" d="M176.34,28.29h-7.12l-1.38,7.4h-5.74L168.88,0h7.8l6.77,35.7h-5.68L176.34,28.29z M170.38,22.27h4.82
		l-2.41-12.74L170.38,22.27z"/>
	<path class="st0" d="M186.9,0h6.03l2.52,14.58L197.98,0H204l-5.51,22.55V35.7h-6.08V22.55L186.9,0z"/>
	<path class="st0" d="M212.32,35.7V0h12.57v6.03h-6.48v8.55h6.37v6.03h-6.37v9.07h6.48v6.03H212.32z"/>
	<path class="st0" d="M246.07,0c2.41,0,4.36,1.95,4.36,4.3v10.33c0,2.35-1.78,4.25-4.07,4.42c2.29,0.11,4.07,2.01,4.07,4.3V35.7
		h-6.08V22.04h-4.25V35.7h-6.03V0H246.07z M244.35,16.01V6.03h-4.25v9.99H244.35z"/>
	<path class="st0" d="M286.24,0v35.7h-6.03V6.03h-1.66V0H286.24z"/>
	<path class="st0" d="M301.21,29.67v6.03h-5.8v-6.03H301.21z"/>
	<path class="st0" d="M322.45,0c2.41,0,4.36,1.95,4.36,4.36v26.97c0,2.41-1.95,4.36-4.36,4.36h-7.75c-2.41,0-4.3-1.95-4.3-4.36V4.36
		c0-2.41,1.89-4.36,4.3-4.36H322.45z M320.67,29.67V6.03h-4.19v23.64H320.67z"/>
</g>
</svg>
