<?xml version="1.0" encoding="utf-8"?>
<!-- Generator: Adobe Illustrator 22.1.0, SVG Export Plug-In . SVG Version: 6.00 Build 0)  -->
<svg version="1.1" id="Layer_1" xmlns="http://www.w3.org/2000/svg" xmlns:xlink="http://www.w3.org/1999/xlink" x="0px" y="0px"
	 viewBox="0 0 2138.3 551.8" style="enable-background:new 0 0 2138.3 551.8;" xml:space="preserve">
<style type="text/css">
	.st0{fill:#D91F26;}
	.st1{fill:#FCE5A0;}
	.st2{fill:#09314E;}
	.st3{fill:#0B304F;}
	.st4{fill:#DA1F26;}
</style>
<g>
	<g>
		<circle class="st0" cx="274.4" cy="275.9" r="259.4"/>
		<circle class="st1" cx="274.4" cy="275.9" r="229.6"/>
		<path class="st2" d="M274.4,545.8c-72.1,0-139.9-28.1-190.9-79.1c-51-51-79.1-118.8-79.1-190.9S32.6,136,83.6,85.1
			C134.5,34.1,202.3,6,274.4,6c72.1,0,139.9,28.1,190.9,79.1c51,51,79.1,118.8,79.1,190.9c0,72.1-28.1,139.9-79.1,190.9
			C414.3,517.8,346.5,545.8,274.4,545.8z M274.4,27c-66.5,0-129,25.9-176,72.9c-47,47-72.9,109.5-72.9,176c0,66.5,25.9,129,72.9,176
			c47,47,109.5,72.9,176,72.9c66.5,0,129-25.9,176-72.9s72.9-109.5,72.9-176c0-66.5-25.9-129-72.9-176S340.9,27,274.4,27z"/>
		<path class="st2" d="M274.4,511c-62.8,0-121.9-24.5-166.3-68.9c-44.4-44.4-68.9-103.5-68.9-166.3c0-62.8,24.5-121.9,68.9-166.3
			c44.4-44.4,103.5-68.9,166.3-68.9s121.9,24.5,166.3,68.9c44.4,44.4,68.9,103.5,68.9,166.3c0,62.8-24.5,121.9-68.9,166.3
			C396.3,486.6,337.2,511,274.4,511z M274.4,51.8c-59.9,0-116.2,23.3-158.5,65.6c-42.3,42.3-65.6,98.6-65.6,158.5
			s23.3,116.2,65.6,158.5c42.3,42.3,98.6,65.6,158.5,65.6c59.9,0,116.2-23.3,158.5-65.6c42.3-42.3,65.6-98.6,65.6-158.5
			s-23.3-116.2-65.6-158.5C390.6,75.1,334.3,51.8,274.4,51.8z"/>
		<g>
			
				<rect x="293.1" y="135" transform="matrix(0.1737 -0.9848 0.9848 0.1737 111.2918 404.8801)" class="st3" width="7.6" height="2.1"/>
			<polygon class="st3" points="318.6,113.6 313.5,112.3 323.7,71.7 318.6,70.4 317.3,75.5 312.2,74.2 311,79.3 316,80.6 308.4,111 
				303.3,109.8 302,114.8 317.3,118.7 			"/>
			<path class="st3" d="M323.4,120.4l12.2,4.8l1.7-0.7L353.7,83l-0.8-1.7l-12.2-4.8l-1.7,0.7l-16.4,41.4L323.4,120.4z M342.5,82.8
				l4.9,1.9l-13.5,34.1l-4.9-1.9L342.5,82.8z"/>
			
				<rect x="281.2" y="133.5" transform="matrix(8.701542e-02 -0.9962 0.9962 8.701542e-02 126.189 406.7946)" class="st3" width="7.6" height="2.1"/>
			<path class="st3" d="M434.5,267.3l-1.3,1.3l-0.4,13.1l1.3,1.4l44.5,1.5l1.3-1.3l0.4-13.1l-1.3-1.3L434.5,267.3z M474.8,279.1
				l-36.6-1.2l0.2-5.2l36.6,1.2L474.8,279.1z"/>
			<polygon class="st3" points="418.7,156.3 431.2,146.9 434.3,151.1 417.6,163.7 412.1,156.3 410.2,156.1 394.6,167.9 404,180.5 
				412.4,174.2 409.3,170 405.1,173.1 401.9,169 410.3,162.6 415.8,169.9 417.6,170.2 440.7,152.9 440.9,151 433,140.6 431.2,140.3 
				415.5,152.1 			"/>
			<path class="st3" d="M431.4,247.9l1.2,13.1l1.4,1.2l18.3-1.7l1.2-1.4l-0.9-9.2l20.8-2l0.5,5.2l-15.6,1.5l0.5,5.2l19.5-1.9
				l1.2-1.4l-1.2-13.1l-1.4-1.2l-44.4,4.2L431.4,247.9z M447.4,250.3l0.5,5.2l-10.4,1l-0.5-5.2L447.4,250.3z"/>
			<polygon class="st3" points="432.9,230.3 431.7,225.1 426.6,226.3 430.1,241.7 435.2,240.5 434,235.4 474.9,226 473.7,220.9 
				468.6,222.1 467.4,217 462.3,218.1 463.5,223.3 			"/>
			<path class="st3" d="M407.7,185.6l6.5,11.4l1.8,0.5l38.8-22l0.5-1.8l-6.5-11.4l-1.8-0.5l-38.8,22L407.7,185.6z M446.1,168.3
				l2.6,4.6L416.8,191l-2.6-4.6L446.1,168.3z"/>
			<polygon class="st3" points="394.8,160.6 391.1,156.9 421,127.5 417.3,123.8 413.6,127.5 409.9,123.7 406.2,127.4 409.9,131.1 
				387.4,153.1 383.7,149.4 380,153.1 391,164.3 			"/>
			<path class="st3" d="M342.6,128.1l11.4,6.3l1.8-0.5l21.6-39l-0.6-1.8l-11.4-6.3l-1.8,0.5l-21.6,39L342.6,128.1z M366.4,93.4
				l4.6,2.5L353.2,128l-4.6-2.5L366.4,93.4z"/>
			<polygon class="st3" points="262.2,138.4 262.2,138.3 262.5,138.3 261.8,130.7 261.4,130.7 260.3,120.1 257.3,120.4 259.1,138.7 
							"/>
			<path class="st3" d="M132.4,193.5l1.8-0.4l7.2-11l-0.4-1.8l-15.4-10l-1.8,0.3l-5,7.7L101.2,167l2.9-4.4l13.2,8.5l2.9-4.4
				l-16.5-10.7l-1.8,0.4l-7.2,11l0.4,1.8L132.4,193.5z M126,176.9l8.8,5.7L132,187l-8.8-5.7L126,176.9z"/>
			<path class="st3" d="M259.8,112.9l13.1-0.3l1.3-1.3L273,66.7l-1.4-1.3l-13.1,0.3l-1.3,1.3l1.2,44.6L259.8,112.9z M267.9,70.8
				l1,36.7l-5.2,0.1l-1-36.7L267.9,70.8z"/>
			<polygon class="st3" points="73.2,247.2 93.9,249.8 92.7,260.2 97.9,260.9 99.2,250.5 109.6,251.7 108.3,262.2 113.5,262.8 
				115.3,248.5 114.1,247 98.7,245.1 97,246.4 95.8,244.8 69.9,241.5 68.5,242.7 66.7,257 71.9,257.7 			"/>
			<polygon class="st3" points="163.4,103.2 177.5,144.1 181.9,141.2 167.8,100.3 165,96 151.8,104.5 154.6,108.9 			"/>
			<polygon class="st3" points="96.7,283.8 98,282.5 97.8,273.3 108.3,273.1 108.4,278.4 103.1,278.5 103.2,283.7 112.4,283.6 
				113.7,282.3 113.5,269.2 112.2,267.8 93.8,268.1 92.5,269.5 92.6,278.6 71.7,279 71.6,268.5 66.3,268.6 66.6,284.3 			"/>
			<path class="st3" d="M196,132.2l11.8-5.7l0.7-1.8l-19.3-40.2l-1.8-0.6l-11.8,5.7l-0.6,1.7l19.3,40.2L196,132.2z M186.2,90.4
				l15.9,33.1l-4.7,2.3l-15.9-33.1L186.2,90.4z"/>
			<path class="st3" d="M469.6,304.8C463.2,346,444,383.9,414,413.9c-23.2,23.2-51.1,39.9-81.6,49.3c1.2-2.8,2.1-5.8,2.8-8.8
				c27.4-9.3,52.4-24.8,73.4-45.8c28.6-28.6,47-64.6,53.3-103.8h-17.3c-6.2,34.6-22.7,66.4-48.1,91.7
				c-17.3,17.3-37.6,30.5-59.7,39.1c-0.2-2.6-0.5-5.2-1-7.8c20.5-8.2,39.3-20.6,55.4-36.7c23.9-23.9,39.6-53.8,45.7-86.3h-17.7
				c-5.9,27.9-19.7,53.5-40.3,74.1c-14.2,14.2-30.7,25.1-48.7,32.5c-1.1-2.3-2.4-4.5-3.8-6.6c17.4-7,33.5-17.5,47.2-31.2
				c19.2-19.2,32.2-42.9,37.9-68.8h-18.6c-9.8,40.4-39.5,73-78.2,86.9c-10.9-9.3-25.1-14.9-40.6-14.9c-15.7,0-30.1,5.8-41.1,15.4
				c-39.3-13.6-69.7-46.5-79.6-87.4h-17.5c5.8,25.9,18.8,49.6,37.9,68.8c13.9,13.9,30.1,24.5,47.8,31.5c-1.4,2.1-2.6,4.3-3.8,6.6
				c-18.2-7.4-35-18.4-49.3-32.8c-20.6-20.6-34.4-46.2-40.3-74.1h-17.7c6.1,32.5,21.8,62.4,45.7,86.3c16.3,16.3,35.3,28.7,56.1,37
				c-0.5,2.5-0.8,5.1-0.9,7.8c-22.4-8.6-43-21.9-60.5-39.4c-25.3-25.3-41.9-57.2-48.1-91.7H85.8c6.4,39.1,24.7,75.2,53.3,103.8
				c21.2,21.2,46.6,36.9,74.3,46.1c0.8,3,1.7,6,2.9,8.8c-30.8-9.3-59.1-26.2-82.5-49.6c-30-30-49.2-67.9-55.6-109.1H59.9
				c12.9,91.8,83.3,165.1,173.6,182.3c11,9.4,25.2,15.1,40.8,15.1s29.8-5.7,40.8-15.1c90.3-17.2,160.7-90.5,173.6-182.3H469.6z
				 M274.3,487.2c-26.3,0-47.7-21.3-47.7-47.7c0-26.3,21.3-47.7,47.7-47.7c26.3,0,47.7,21.3,47.7,47.7
				C322,465.8,300.7,487.2,274.3,487.2z"/>
			<path class="st3" d="M276.6,414.1V409h7.7v2.9h4.6v-10.6h-4.6v3.1h-20.5v-3.1h-4.6v10.6h4.6V409h8.2v5.2h-11.4v0h-12.2v4.3h3.8
				v40.9h-3.8v4.3h3.8v0H272v5.2h-8.2v-3.1h-4.6v10.6h4.6v-2.9h8.2v0h4.6v0h7.7v2.9h4.6v-10.6h-4.6v3.1h-7.7v-5.2h18.5l2.3-2.3
				v-45.1l-2.3-2.3H276.6z M272,438.8h-0.8v-0.1h-3.7v-11.6h4.5V438.8z M272,422.5h-0.8H263h-3.9v4.3h3.9v11.8h-3.9v4.3h3.9v9.8
				h-3.9v4.6h12.2v-4.6h-3.7v-9.5h4.5v15.8h-15.2v-40.5H272V422.5z M276.6,427.1h8.4v11.7h-8.4V427.1z M292.8,459.2h-16.3v-15.8
				h11.8l1.2-1.1v-18.6l-1.2-1.1h-11.8v-3.9h16.3V459.2z"/>
			<path class="st3" d="M143.8,176l1.8-0.1l8.5-10L154,164l-33.9-28.9l-1.9,0.2l-8.5,10l0.1,1.8L143.8,176z M119.7,141.7l27.9,23.8
				l-3.4,4l-27.9-23.8L119.7,141.7z"/>
			<path class="st3" d="M239.3,116l12.9-2l1.1-1.5l-6.9-44l-1.5-1.1l-12.9,2l-1.1,1.5l6.9,44L239.3,116z M247.6,109.3l-5.2,0.8
				l-1.6-10.4L246,99L247.6,109.3z M241.9,73.1l3.2,20.7l-5.2,0.8l-3.2-20.7L241.9,73.1z"/>
			<path class="st3" d="M207.4,155l-9.2-15.8l-2.7,1.5l9.2,15.8c-2.6,1.5-5.1,3.1-7.5,4.8l-4.3-6.2l-1.8,1.2l4.3,6.1
				c-2.6,1.8-5.1,3.8-7.6,5.8l-4.8-5.7l-1.6,1.4l4.8,5.7c-1.6,1.4-3.2,2.8-4.8,4.2c-14.6-14.2-24.2-24.3-24.2-24.3l-1.4,1.3
				l-0.8,0.8l0.5-0.5l-0.8,0.8l-1.4,1.3c0,0,9.7,10,23.2,25.3c-1.9,1.9-3.7,3.9-5.4,5.8l-5.6-4.7l-1.4,1.6l5.5,4.7
				c-2.1,2.4-4,4.9-5.9,7.5l-14.2-10.5l-1.8,2.5l14.3,10.5c-1.7,2.4-3.2,4.8-4.7,7.3l-6-3.5l-1.1,1.9l6,3.5
				c-1.6,2.8-3.1,5.6-4.5,8.4l-6.2-2.9l-0.9,1.9l6.2,2.9c-1.4,2.9-2.6,5.8-3.8,8.8l-6.3-2.3l-0.7,2l6.3,2.3c-1.1,3-2.1,6.1-3,9.1
				l-6.3-1.7l-0.6,2.1l6.3,1.7c-0.8,3.1-1.6,6.2-2.2,9.4l-6.3-1.1l-0.4,2.1l6.3,1.1c-0.6,3.2-1,6.3-1.4,9.5l-6.3-0.5l-0.2,2.1
				l6.2,0.5c-0.3,3-0.5,6.1-0.5,9.2H121v3.1h16.8c0,0.1,0,0.2,0,0.3h3.1c0-35.9,14.4-68.5,37.6-92.3c19.4,22.1,45.6,54,62.7,82.8
				c-1,3.2-1.5,6.7-1.5,10.2c0,19.1,15.5,34.7,34.7,34.7c5.2,0,10.2-1.2,14.6-3.2c9.3,3.6,13.1,5.2,13.1,5.2l1.4-1.3l0.8-0.8l1-1
				l0.8-0.8l1.4-1.3c0,0-1.3-3.6-4.2-12.3c3.6-5.5,5.7-12,5.7-19.1c0-19.1-15.5-34.7-34.7-34.7c-4.3,0-8.4,0.8-12.1,2.2
				c-27.6-18.4-57.7-45.5-78.5-65.6c23.6-21.7,55.1-35,89.6-35c73,0,132.3,59.4,132.3,132.3h3.1c0-0.1,0-0.2,0-0.3h17.6V270h-17.6
				c-0.1-3.1-0.3-6.2-0.5-9.2l5.9-0.5l-0.2-2.1l-5.9,0.5c-0.3-3.2-0.8-6.4-1.4-9.6l5.9-1l-0.4-2.1l-6,1.1c-0.6-3.2-1.4-6.3-2.2-9.4
				l6-1.6l-0.6-2.1l-6,1.6c-0.9-3.1-1.9-6.1-3-9.2l5.9-2.2l-0.7-2l-6,2.2c-1.2-3-2.4-5.9-3.8-8.9l5.9-2.7l-0.9-1.9l-5.9,2.7
				c-1.4-2.9-2.9-5.7-4.6-8.5l5.8-3.3l-1.1-1.9l-5.8,3.3c-1.7-2.7-3.4-5.4-5.3-8l5.6-3.9l-1.2-1.8l-5.6,3.9c-0.5-0.7-1-1.3-1.5-2
				l14-10.7l-1.9-2.4l-14.1,10.7c-0.8-1.1-1.7-2.1-2.6-3.1l5.3-4.5l-1.4-1.6l-5.4,4.5c-2-2.3-4.1-4.6-6.3-6.7
				c-0.1-0.1-0.2-0.2-0.3-0.3l5-5l-1.5-1.5l-5,5c-2.3-2.2-4.7-4.4-7.1-6.4l4.6-5.5l-1.6-1.4l-4.6,5.5c-2.5-2-5-3.9-7.6-5.8l4.2-6
				l-1.8-1.2l-4.2,6c-2.6-1.8-5.3-3.5-8.1-5.1l3.7-6.4l-1.9-1.1l-3.7,6.4c-2.8-1.6-5.6-3-8.5-4.4l3.1-6.8l-1.9-0.9l-3.2,6.8
				c-2.9-1.3-5.8-2.5-8.8-3.6l2.6-7.1l-0.1,0l3.3-8.2l-2.9-1.1l-6.1,15.3c-2.6-0.9-5.2-1.7-7.9-2.4l2-7.3l-2.1-0.6l-2,7.4
				c-10.8-2.7-22-4.1-33.4-4.1c-19.5,0-38.4,4.1-55.7,11.9l-3.2-6.9l-1.9,0.9l3.2,6.9C212.8,152.1,210.1,153.5,207.4,155z
				 M274.4,245.5c0.6-1.9,4.5-2.3,8.7-0.9c4.2,1.4,7.1,4,6.5,5.8c-0.6,1.9-4.5,2.3-8.7,0.9C276.7,250,273.8,247.4,274.4,245.5z
				 M271.1,258.9c22.6,17.6,21.1,2.9,21.1,2.9s10.2,7,4.4,25.5c-2.5-2-16.7-14.2-16.7-14.2s-80.5-76.6-82.9-79
				C197,194.1,254.6,246.1,271.1,258.9z"/>
			
				<rect x="248.1" y="132.3" transform="matrix(0.9848 -0.1737 0.1737 0.9848 -19.8595 45.3698)" class="st3" width="2.1" height="7.6"/>
			<rect x="272" y="130.2" class="st3" width="2.1" height="7.6"/>
			
				<rect x="236.4" y="134.9" transform="matrix(0.9659 -0.2588 0.2588 0.9659 -27.8099 66.1978)" class="st3" width="2.1" height="7.6"/>
			<rect x="225" y="138.5" transform="matrix(0.9397 -0.342 0.342 0.9397 -35.0444 85.899)" class="st3" width="2.1" height="7.6"/>
		</g>
	</g>
	<g>
		<path class="st0" d="M631.1,101.4c9.4,0,16.9,7.6,16.9,16.7v105c0,9.4-7.6,16.9-16.9,16.9h-46.6V101.4H631.1z M624.5,216.7v-91.9
			h-16.3v91.9H624.5z"/>
		<path class="st0" d="M694.9,240.1h-23.4V101.4h23.4V240.1z"/>
		<path class="st0" d="M735.3,240.1c-9.4,0-16.9-7.6-16.9-16.9v-105c0-9.1,7.6-16.7,16.9-16.7h32.3v23.4H742v33.2h25.6v23.2H742
			v35.5h25.6v23.4H735.3z"/>
		<path class="st0" d="M840.8,124.8h-28.3v36.4h14.1c9.1,0,14.7,5.1,14.7,14.5v47.5c0,9.4-7.6,16.9-16.9,16.9H789v-23.4h28.5v-32.1
			h-11.8c-9.1,0-16.9-7.6-16.9-16.9v-49.3c0-9.4,7.4-16.9,16.7-16.9h35.2V124.8z"/>
		<path class="st0" d="M879.4,240.1c-9.4,0-17-7.6-17-16.9v-105c0-9.1,7.6-16.7,17-16.7h32.3v23.4h-25.6v33.2h25.6v23.2h-25.6v35.5
			h25.6v23.4H879.4z"/>
		<path class="st0" d="M983.3,240.1H951c-9.4,0-17-7.6-17-16.9V101.4h23.6v115.3h25.6V240.1z"/>
		<path class="st0" d="M1049.1,101.4c9.4,0,17.2,7.6,17.2,16.9v49.5c0,9.8-6.7,19.2-17.2,19.2h-23.2v53.1h-23.6V101.4H1049.1z
			 M1042.4,163.6v-38.8h-16.5v38.8H1042.4z"/>
		<path class="st0" d="M1126.2,101.4h23.6v121.8c0,9.4-7.6,16.9-16.9,16.9h-29.4c-9.4,0-17.2-7.6-17.2-16.9V101.4h23.6v115.3h16.3
			V101.4z"/>
		<path class="st0" d="M1195.8,240.1h-23.6V101.4h46.8c9.4,0,16.7,7.6,16.7,16.9v121.8h-23.6V124.8h-16.3V240.1z"/>
		<path class="st0" d="M1304.2,165.2c9.4,0,16.9,7.6,16.9,16.9v58h-23.6v-56.9h-15.8v56.9h-23.6V101.4h23.6v63.1l21.9-63.1h24.3
			l-25.2,63.8H1304.2z"/>
		<path class="st0" d="M1430.4,240.1H1407V101.4h23.4V240.1z"/>
		<path class="st0" d="M1477.5,240.1h-23.6V101.4h46.8c9.4,0,16.7,7.6,16.7,16.9v121.8h-23.6V124.8h-16.3V240.1z"/>
		<path class="st0" d="M1586.3,101.4c9.4,0,16.9,7.6,16.9,16.7v105c0,9.4-7.6,16.9-16.9,16.9h-46.6V101.4H1586.3z M1579.6,216.7
			v-91.9h-16.3v91.9H1579.6z"/>
		<path class="st0" d="M1665.5,101.4h23.6v121.8c0,9.4-7.6,16.9-16.9,16.9h-29.4c-9.4,0-17.2-7.6-17.2-16.9V101.4h23.6v115.3h16.3
			V101.4z"/>
		<path class="st0" d="M1762.3,124.8H1734v36.4h14.1c9.1,0,14.7,5.1,14.7,14.5v47.5c0,9.4-7.6,16.9-17,16.9h-35.2v-23.4h28.5v-32.1
			h-11.8c-9.1,0-17-7.6-17-16.9v-49.3c0-9.4,7.4-16.9,16.7-16.9h35.2V124.8z"/>
		<path class="st0" d="M1823,240.1h-23.6V124.8h-19.8v-23.4h63.1v23.4H1823V240.1z"/>
		<path class="st0" d="M1909.3,101.4c9.4,0,16.9,7.6,16.9,16.7v40.1c0,9.1-6.9,16.5-15.8,17.2c8.9,0.4,15.8,7.8,15.8,16.7v47.9
			h-23.6v-53.1h-16.5v53.1h-23.4V101.4H1909.3z M1902.6,163.6v-38.8h-16.5v38.8H1902.6z"/>
		<path class="st0" d="M1973.1,240.1h-23.4V101.4h23.4V240.1z"/>
		<path class="st0" d="M2013.4,240.1c-9.4,0-17-7.6-17-16.9v-105c0-9.1,7.6-16.7,17-16.7h32.3v23.4h-25.6v33.2h25.6v23.2h-25.6v35.5
			h25.6v23.4H2013.4z"/>
		<path class="st0" d="M2118.9,124.8h-28.3v36.4h14.1c9.1,0,14.7,5.1,14.7,14.5v47.5c0,9.4-7.6,16.9-17,16.9h-35.2v-23.4h28.5v-32.1
			h-11.8c-9.1,0-17-7.6-17-16.9v-49.3c0-9.4,7.4-16.9,16.7-16.9h35.2V124.8z"/>
	</g>
	<g>
		<path class="st0" d="M815.1,327c-1.1-8.5,0.7-17.8,6.6-27.9c27.4-47.8,86.2-19.5,61.4,23.9l-14.7,25.5c9.9-1.8,20.8-7,30.9-16.2
			l5.3,10.5c-13.8,12.7-29.4,18.2-43.5,18.4l-20.4,35.6c-31.8,55.1-96.1,36.2-65.4-16.9l30.5-52.9H815.1z M818.6,338.6l-30.1,52.4
			c-16.7,29,17.5,33.1,32.3,7.3l22.8-39.7C832.6,355.1,823.6,348.1,818.6,338.6z M849.8,347.9l18.6-32.2
			c14.1-24.6-14.5-41.7-31.8-9.7C825.2,327.3,833.7,343.3,849.8,347.9z"/>
		<path class="st0" d="M915.1,378.8c2.6,1.1,5.9,4,7.2,6.6c-15.8,18.4-34,35.3-49.8,35.3c-15.4,0-21.1-13-13-27.2l61.7-106.9h19.1
			l-64.3,111.9c-4.4,7.5-2,10.5,2.2,10.5c8.5,0,21.9-12.7,35.6-28.7L915.1,378.8z"/>
		<path class="st0" d="M1005.3,378.8c2.6,1.1,5.9,4,7.2,6.6c-15.8,18.4-34,35.3-49.8,35.3c-9.7,0-15.6-5.1-16.5-12.5
			c-9.2,7.5-18.7,12.5-26.5,12.5c-15.4,0-21.1-13-13-27.2l26.8-46.3c8.1-14,22.4-22,32.7-22c7.9,0,14.1,4.6,17.5,9.9l28.1-48.5h19.1
			l-64.7,111.9c-4.4,7.5-2,10.5,2.2,10.5c8.5,0,21.9-12.7,35.6-28.7L1005.3,378.8z M923.2,398.5c-4.4,7.5-2,10.5,2.2,10.5
			c8.1,0,19.8-9,31.4-27.9l14.5-25h-0.2c9.4-17.3-11-21.9-21.3-4L923.2,398.5z"/>
		<path class="st0" d="M1077.6,391.7c-13,13.2-7,28.7,10.8,28.7c13.8,0,24.6-11.2,33.8-27.2l54.4-95c-8.6,4.6-19.3,7.2-29.6,7.2
			c-5,0-16.5-0.7-20.9-0.7c-16.4,0-27.6,9.9-27.6,20c0,5.9,2.6,11.2,9.2,14.9l-9.4,11.8c-10.3-5.5-15.3-15.1-15.3-24.8
			c0-21.1,19.3-36.6,47-36.6c4,0,14.9,0.2,19.1,0.2c20.4,0,37.5-9.4,37.5-9.4l9.9,16.7h-0.2l-57.3,99.4
			c-16.2,27.9-34,38.6-52.9,38.6c-28.8,0-43.5-31.8-18.9-53.7L1077.6,391.7z"/>
		<path class="st0" d="M1218.7,378.8c2.6,1.1,5.9,4,7.2,6.6c-15.8,18.4-34,35.3-49.8,35.3c-15.4,0-21.1-13-13-27.2l38.4-66.5h19.1
			l-41,71.5c-4.4,7.5-2,10.5,2.2,10.5c8.5,0,21.9-12.7,35.6-28.7L1218.7,378.8z M1222.9,295c6.2,0,11.2,5,11.2,11.2
			c0,6.2-5,11-11.2,11c-6.2,0-11-4.8-11-11C1211.9,300,1216.7,295,1222.9,295z"/>
		<path class="st0" d="M1356.5,378.8c2.6,1.1,5.9,4,7.2,6.6c-15.8,18.4-34,35.3-49.8,35.3c-15.4,0-21.1-13-13-27.2l24.8-43.2
			c9.2-15.8-7.9-19.8-43.9,31.1l-21.5,37.5h-19.5l39.5-68.5c9-15.6-7.7-19.7-43.2,30l-22.2,38.6h-19.3l53.1-91.9h19.1l-11.4,19.8
			c12.1-15.3,23-21.7,32.9-21.7c10.1,0,17.8,9.7,11.2,23.2c12.7-16.2,23.9-23.2,34.2-23.2c10.7,0,18.6,10.5,10.3,25l-27.6,48.3
			c-4.4,7.5-2,10.5,2.2,10.5c8.5,0,21.9-12.7,35.6-28.7L1356.5,378.8z"/>
		<path class="st0" d="M1373.4,382.8l-1.8,3.3c-8.8,15.4-1.8,22.8,9.9,22.8c13.4,0,31.1-12.7,44.8-28.7l1.3-1.5
			c2.6,1.1,5.9,4,7.2,6.6c-15.8,18.4-37.3,35.3-59,35.3c-22.6,0-32.9-18.7-20.9-39.1l20-34.4c8.1-14,20.4-22,35.8-22
			c15.6,0,25.5,13.2,15.3,30.9l-2.8,4.8C1408.9,385.6,1385.7,388,1373.4,382.8z M1378.9,373.5c7.2,2.6,19.5,2.9,28.7-12.7l2.8-4.8
			c11.4-19.8-8.1-23-19.1-4L1378.9,373.5z"/>
		<path class="st0" d="M1468.4,418.8l71.7-124h19.1l-28.1,48.7c22,10.7,43-0.9,52.9-21.3c11.9-24.1-5.9-42.3-27.4-42.3
			c-32.7,0-37.9,33.6-37.9,33.6l-16.2-2.6c0,0,7.3-47.6,54-47.6c72.6,0,56.6,94.8-3.7,95.4c9,9.6,9.7,22.8-0.6,40.6l-38.1,68.6
			c-2.8,4.6-3.9,13.8,2.6,16.9l-8.1,14c-15.8-7.9-16.5-25.5-8.8-39l38.1-68.6c10.1-17.5,5.5-30-11.4-36.9l-1.5-0.6l-37.5,65H1468.4z
			"/>
		<path class="st0" d="M1678,378.8c2.6,1.1,5.9,4,7.2,6.6c-15.8,18.4-34,35.3-49.8,35.3c-9.7,0-15.6-5.1-16.5-12.5
			c-9.2,7.5-18.7,12.5-26.5,12.5c-15.4,0-21.1-13-13-27.2l26.8-46.3c8.1-14,22.4-22,32.7-22c12.5,0,20.8,11.2,20,19.3h10.8l-30.9,54
			c-4.4,7.5-2,10.5,2.2,10.5c8.5,0,21.9-12.7,35.6-28.7L1678,378.8z M1595.9,398.5c-4.4,7.5-2,10.5,2.2,10.5
			c7.9,0,19.3-8.6,30.9-26.8l14.9-26.1c9.4-17.3-11-21.9-21.3-4L1595.9,398.5z"/>
		<path class="st0" d="M1768.2,378.8c2.6,1.1,5.9,4,7.2,6.6c-15.8,18.4-34,35.3-49.8,35.3c-9.7,0-15.6-5.1-16.5-12.5
			c-9.2,7.5-18.7,12.5-26.5,12.5c-15.4,0-21.1-13-13-27.2l26.8-46.3c8.1-14,22.4-22,32.7-22c7.9,0,14.1,4.6,17.5,9.9l28.1-48.5h19.1
			l-64.7,111.9c-4.4,7.5-2,10.5,2.2,10.5c8.5,0,21.9-12.7,35.6-28.7L1768.2,378.8z M1686.1,398.5c-4.4,7.5-2,10.5,2.2,10.5
			c8.1,0,19.8-9,31.4-27.9l14.5-25h-0.2c9.4-17.3-11-21.9-21.3-4L1686.1,398.5z"/>
		<path class="st0" d="M1815.4,378.8c2.6,1.1,5.9,4,7.2,6.6c-15.8,18.4-34,35.3-49.8,35.3c-15.4,0-21.1-13-13-27.2l38.4-66.5h19.1
			l-41,71.5c-4.4,7.5-2,10.5,2.2,10.5c8.5,0,21.9-12.7,35.6-28.7L1815.4,378.8z M1819.7,295c6.2,0,11.2,5,11.2,11.2
			c0,6.2-5,11-11.2,11c-6.2,0-11-4.8-11-11C1808.6,300,1813.4,295,1819.7,295z"/>
		<path class="st0" d="M1862.5,404c-25.7,32.5-71.8,17.3-47.8-24.1l8.3-14.1l9.4-16.4c11-19.1,22.4-25,37.1-25
			c18,0,28.7,18.9,17.1,39l-18,31.1c9.6-0.2,20.2-4.8,28.8-14.1l1.3-1.5c2.6,1.1,5.9,4,7.2,6.6c-9.7,11.6-27.7,18.6-39.1,18.6
			H1862.5z M1857,380.1h0.9l14-23.9c11.6-19.8-6.8-28.8-20.2-6.1l-9.2,15.6l-14.5,25.2c-11.4,19.8,10.5,22.8,19.5,7.3l0.2-0.4
			c-1.1-1.8-1.8-4-1.8-6.4C1845.8,385.2,1850.7,380.1,1857,380.1z"/>
	</g>
	<g>
		<path class="st4" d="M1603.5,486.4l-3.6-8.5h-16.4l-3.6,8.5h-9.3l16.9-39.2h8.5l16.9,39.2H1603.5z M1591.6,458.9l-4.9,11.4h9.8
			L1591.6,458.9z"/>
		<path class="st4" d="M1656.9,460.2c0,6.3-2.5,10.3-7.5,12.2l9.9,14h-10.8l-8.7-12.5h-6.1v12.5h-8.7v-39.2h14.8
			c6.1,0,10.4,1,13,3.1C1655.6,452.3,1656.9,455.7,1656.9,460.2z M1646.4,464.9c1.1-1,1.6-2.5,1.6-4.6c0-2.1-0.6-3.6-1.7-4.3
			c-1.1-0.8-3.1-1.2-5.9-1.2h-6.6v11.6h6.4C1643.3,466.3,1645.3,465.8,1646.4,464.9z"/>
		<path class="st4" d="M1691.7,478.7c4.3,0,7.8-1.7,10.5-5.1l5.6,5.8c-4.4,5-9.7,7.5-15.7,7.5c-6,0-11-1.9-14.9-5.7
			c-3.9-3.8-5.9-8.6-5.9-14.4c0-5.8,2-10.7,6-14.5c4-3.9,8.8-5.8,14.6-5.8c6.4,0,11.8,2.4,16.1,7.3l-5.4,6.2
			c-2.8-3.4-6.2-5.2-10.3-5.2c-3.3,0-6.1,1.1-8.4,3.2c-2.3,2.1-3.5,5-3.5,8.7s1.1,6.6,3.3,8.8
			C1685.9,477.5,1688.6,478.7,1691.7,478.7z"/>
		<path class="st4" d="M1746.9,447.2h8.7v39.2h-8.7V471h-15.6v15.4h-8.7v-39.2h8.7v16.4h15.6V447.2z"/>
		<path class="st4" d="M1773.1,447.2h8.7v39.2h-8.7V447.2z"/>
		<path class="st4" d="M1813.8,472.1l10-24.9h9.5l-15.7,39.2h-7.4l-15.7-39.2h9.5L1813.8,472.1z"/>
		<path class="st4" d="M1874,447.2v7.8h-19.5v8.1h17.5v7.5h-17.5v8.1h20.1v7.7h-28.9v-39.2H1874z"/>
	</g>
	<g>
		<path class="st4" d="M786.9,464.5c0,2.5-1.1,4.1-3.3,4.8l4,5.6h-3.3l-3.7-5.2h-3.4v5.2h-2.6v-15.4h5.7c2.3,0,4,0.4,5,1.2
			C786.4,461.5,786.9,462.7,786.9,464.5z M783.5,466.7c0.5-0.5,0.8-1.2,0.8-2.2c0-1-0.3-1.7-0.8-2.1c-0.5-0.4-1.5-0.6-2.9-0.6h-3.3
			v5.5h3.2C781.9,467.4,782.9,467.1,783.5,466.7z"/>
		<path class="st4" d="M800.8,471.4l-1.5,3.5h-2.8l6.8-15.4h2.8l6.8,15.4H810l-1.5-3.5H800.8z M807.4,469l-2.8-6.3l-2.8,6.3H807.4z"
			/>
		<path class="st4" d="M834.5,461.5c1.5,1.3,2.2,3.2,2.2,5.6s-0.7,4.3-2.2,5.7s-3.6,2.1-6.6,2.1h-5.1v-15.4h5.3
			C830.9,459.5,833,460.2,834.5,461.5z M834.1,467.2c0-3.5-2-5.3-6-5.3h-2.6v10.5h2.9c1.9,0,3.3-0.4,4.3-1.3
			C833.6,470.2,834.1,468.9,834.1,467.2z"/>
		<path class="st4" d="M847.9,459.5h2.6v15.4h-2.6V459.5z"/>
		<path class="st4" d="M875.6,472.8c-1.6,1.5-3.5,2.3-5.8,2.3c-2.3,0-4.2-0.8-5.8-2.3c-1.6-1.5-2.3-3.4-2.3-5.7
			c0-2.3,0.8-4.2,2.3-5.7c1.6-1.5,3.5-2.3,5.8-2.3c2.3,0,4.2,0.8,5.8,2.3c1.6,1.5,2.3,3.4,2.3,5.7
			C877.9,469.3,877.2,471.2,875.6,472.8z M873.7,463.1c-1-1.1-2.3-1.6-3.9-1.6c-1.5,0-2.8,0.5-3.9,1.6c-1,1.1-1.6,2.4-1.6,3.9
			s0.5,2.9,1.6,3.9c1,1.1,2.3,1.6,3.9,1.6c1.5,0,2.8-0.5,3.9-1.6c1-1.1,1.6-2.4,1.6-3.9S874.7,464.2,873.7,463.1z"/>
		<path class="st4" d="M888.5,474.6c-0.3-0.3-0.5-0.7-0.5-1.2c0-0.5,0.2-0.8,0.5-1.2s0.7-0.5,1.2-0.5c0.5,0,0.8,0.2,1.2,0.5
			c0.3,0.3,0.5,0.7,0.5,1.2c0,0.5-0.2,0.8-0.5,1.2c-0.3,0.3-0.7,0.5-1.2,0.5C889.2,475.1,888.8,474.9,888.5,474.6z"/>
		<path class="st4" d="M914.4,461.5c1.5,1.3,2.2,3.2,2.2,5.6s-0.7,4.3-2.2,5.7s-3.6,2.1-6.6,2.1h-5.1v-15.4h5.3
			C910.8,459.5,912.9,460.2,914.4,461.5z M914,467.2c0-3.5-2-5.3-6-5.3h-2.6v10.5h2.9c1.9,0,3.3-0.4,4.3-1.3
			C913.5,470.2,914,468.9,914,467.2z"/>
		<path class="st4" d="M927.9,459.5h2.6v15.4h-2.6V459.5z"/>
		<path class="st4" d="M953.5,459.5v2.4h-8.2v4.1h7.4v2.3h-7.4v4.1h8.5v2.4h-11.1v-15.4H953.5z"/>
		<path class="st4" d="M969.7,461.5c-0.8,0-1.4,0.2-1.9,0.5c-0.5,0.3-0.7,0.8-0.7,1.4c0,0.6,0.2,1.1,0.7,1.4
			c0.5,0.3,1.5,0.7,3.1,1.1c1.6,0.4,2.8,0.9,3.6,1.6c0.8,0.7,1.2,1.7,1.2,3s-0.5,2.4-1.5,3.3c-1,0.8-2.3,1.3-4,1.3
			c-2.4,0-4.5-0.8-6.4-2.5l1.6-2c1.6,1.3,3.2,2,4.8,2c0.8,0,1.5-0.2,2-0.5s0.7-0.8,0.7-1.4s-0.2-1.1-0.7-1.4
			c-0.5-0.3-1.3-0.6-2.4-0.9c-1.1-0.3-2-0.5-2.6-0.7s-1.1-0.5-1.6-0.9c-0.9-0.7-1.4-1.7-1.4-3.2s0.5-2.5,1.6-3.3
			c1-0.8,2.3-1.2,3.8-1.2c1,0,2,0.2,2.9,0.5c1,0.3,1.8,0.8,2.5,1.4l-1.4,2c-0.5-0.4-1.1-0.7-1.8-1S970.4,461.5,969.7,461.5z"/>
		<path class="st4" d="M997.6,459.5v2.4h-8.2v4.1h7.4v2.3h-7.4v4.1h8.5v2.4h-11.1v-15.4H997.6z"/>
		<path class="st4" d="M1009.1,474.9v-15.4h2.6v12.9h7v2.5H1009.1z"/>
		<path class="st4" d="M1039.9,460.8c1.1,0.9,1.6,2.3,1.6,4.1c0,1.9-0.5,3.2-1.6,4.1c-1.1,0.9-2.8,1.3-5,1.3h-2.7v4.5h-2.6v-15.4
			h5.3C1037.1,459.5,1038.8,459.9,1039.9,460.8z M1038,467.2c0.5-0.5,0.8-1.4,0.8-2.4c0-1.1-0.3-1.8-1-2.3c-0.7-0.4-1.7-0.7-3.1-0.7
			h-2.6v6.2h3C1036.5,468,1037.5,467.7,1038,467.2z"/>
		<path class="st4" d="M1055.9,471.4c0.7,0.8,1.7,1.2,2.9,1.2c1.2,0,2.2-0.4,2.9-1.2s1.1-1.9,1.1-3.3v-8.5h2.6v8.6
			c0,2.2-0.6,3.9-1.8,5.1s-2.8,1.8-4.7,1.8c-1.9,0-3.5-0.6-4.7-1.8c-1.2-1.2-1.8-2.9-1.8-5.1v-8.6h2.6v8.5
			C1054.8,469.4,1055.2,470.5,1055.9,471.4z"/>
		<path class="st4" d="M1088.8,459.5h2.6v15.4h-2.8l-8.7-11.2v11.2h-2.6v-15.4h2.6l8.9,11.5V459.5z"/>
		<path class="st4" d="M1103.6,459.5h2.6v7.5l7-7.5h3.3l-6.2,6.7l6.3,8.6h-3.1l-5.1-6.7l-2.2,2.4v4.3h-2.6V459.5z"/>
		<path class="st4" d="M1127,459.5h2.6v15.4h-2.6V459.5z"/>
		<path class="st4" d="M1153.3,459.5h2.6v15.4h-2.8l-8.7-11.2v11.2h-2.6v-15.4h2.6l8.9,11.5V459.5z"/>
		<path class="st4" d="M1179.7,461.5c1.5,1.3,2.2,3.2,2.2,5.6s-0.7,4.3-2.2,5.7s-3.6,2.1-6.6,2.1h-5.1v-15.4h5.3
			C1176.1,459.5,1178.2,460.2,1179.7,461.5z M1179.3,467.2c0-3.5-2-5.3-6-5.3h-2.6v10.5h2.9c1.9,0,3.3-0.4,4.3-1.3
			C1178.8,470.2,1179.3,468.9,1179.3,467.2z"/>
		<path class="st4" d="M1196.6,471.4c0.7,0.8,1.7,1.2,2.9,1.2c1.2,0,2.2-0.4,2.9-1.2s1.1-1.9,1.1-3.3v-8.5h2.6v8.6
			c0,2.2-0.6,3.9-1.8,5.1s-2.8,1.8-4.7,1.8c-1.9,0-3.5-0.6-4.7-1.8c-1.2-1.2-1.8-2.9-1.8-5.1v-8.6h2.6v8.5
			C1195.6,469.4,1195.9,470.5,1196.6,471.4z"/>
		<path class="st4" d="M1222.7,461.5c-0.8,0-1.4,0.2-1.9,0.5c-0.5,0.3-0.7,0.8-0.7,1.4c0,0.6,0.2,1.1,0.7,1.4
			c0.5,0.3,1.5,0.7,3.1,1.1c1.6,0.4,2.8,0.9,3.6,1.6c0.8,0.7,1.2,1.7,1.2,3s-0.5,2.4-1.5,3.3c-1,0.8-2.3,1.3-4,1.3
			c-2.4,0-4.5-0.8-6.4-2.5l1.6-2c1.6,1.3,3.2,2,4.8,2c0.8,0,1.5-0.2,2-0.5s0.7-0.8,0.7-1.4s-0.2-1.1-0.7-1.4s-1.3-0.6-2.4-0.9
			c-1.1-0.3-2-0.5-2.6-0.7s-1.1-0.5-1.6-0.9c-0.9-0.7-1.4-1.7-1.4-3.2s0.5-2.5,1.6-3.3c1-0.8,2.3-1.2,3.8-1.2c1,0,2,0.2,2.9,0.5
			c1,0.3,1.8,0.8,2.5,1.4l-1.4,2c-0.5-0.4-1.1-0.7-1.8-1S1223.4,461.5,1222.7,461.5z"/>
		<path class="st4" d="M1245.6,461.9v13h-2.6v-13h-4.7v-2.4h11.9v2.4H1245.6z"/>
		<path class="st4" d="M1273.3,464.5c0,2.5-1.1,4.1-3.3,4.8l4,5.6h-3.3l-3.7-5.2h-3.4v5.2h-2.6v-15.4h5.7c2.3,0,4,0.4,5,1.2
			C1272.8,461.5,1273.3,462.7,1273.3,464.5z M1269.8,466.7c0.5-0.5,0.8-1.2,0.8-2.2c0-1-0.3-1.7-0.8-2.1c-0.5-0.4-1.5-0.6-2.9-0.6
			h-3.3v5.5h3.2C1268.3,467.4,1269.3,467.1,1269.8,466.7z"/>
		<path class="st4" d="M1284.9,459.5h2.6v15.4h-2.6V459.5z"/>
		<path class="st4" d="M1310.5,459.5v2.4h-8.2v4.1h7.4v2.3h-7.4v4.1h8.5v2.4h-11.1v-15.4H1310.5z"/>
		<path class="st4" d="M1326.7,461.5c-0.8,0-1.4,0.2-1.9,0.5c-0.5,0.3-0.7,0.8-0.7,1.4c0,0.6,0.2,1.1,0.7,1.4
			c0.5,0.3,1.5,0.7,3.1,1.1c1.6,0.4,2.8,0.9,3.6,1.6c0.8,0.7,1.2,1.7,1.2,3s-0.5,2.4-1.5,3.3c-1,0.8-2.3,1.3-4,1.3
			c-2.4,0-4.5-0.8-6.4-2.5l1.6-2c1.6,1.3,3.2,2,4.8,2c0.8,0,1.5-0.2,2-0.5s0.7-0.8,0.7-1.4s-0.2-1.1-0.7-1.4s-1.3-0.6-2.4-0.9
			c-1.1-0.3-2-0.5-2.6-0.7s-1.1-0.5-1.6-0.9c-0.9-0.7-1.4-1.7-1.4-3.2s0.5-2.5,1.6-3.3c1-0.8,2.3-1.2,3.8-1.2c1,0,2,0.2,2.9,0.5
			c1,0.3,1.8,0.8,2.5,1.4l-1.4,2c-0.5-0.4-1.1-0.7-1.8-1S1327.4,461.5,1326.7,461.5z"/>
		<path class="st4" d="M1343.6,474.6c-0.3-0.3-0.5-0.7-0.5-1.2c0-0.5,0.2-0.8,0.5-1.2s0.7-0.5,1.2-0.5c0.5,0,0.8,0.2,1.2,0.5
			c0.3,0.3,0.5,0.7,0.5,1.2c0,0.5-0.2,0.8-0.5,1.2c-0.3,0.3-0.7,0.5-1.2,0.5C1344.3,475.1,1343.9,474.9,1343.6,474.6z"/>
		<path class="st4" d="M1364.9,472.5c0.9,0,1.7-0.2,2.3-0.5s1.3-0.8,2-1.4l1.7,1.7c-1.6,1.8-3.6,2.7-5.9,2.7c-2.3,0-4.3-0.7-5.8-2.2
			c-1.5-1.5-2.3-3.4-2.3-5.7s0.8-4.2,2.3-5.7c1.6-1.5,3.5-2.3,5.9-2.3c2.4,0,4.4,0.9,6,2.6l-1.7,1.8c-0.7-0.7-1.4-1.2-2.1-1.5
			c-0.7-0.3-1.4-0.4-2.3-0.4c-1.6,0-2.9,0.5-3.9,1.5c-1.1,1-1.6,2.3-1.6,3.9c0,1.6,0.5,2.9,1.6,3.9S1363.5,472.5,1364.9,472.5z"/>
		<path class="st4" d="M1394.5,472.8c-1.6,1.5-3.5,2.3-5.8,2.3s-4.2-0.8-5.8-2.3s-2.3-3.4-2.3-5.7c0-2.3,0.8-4.2,2.3-5.7
			c1.6-1.5,3.5-2.3,5.8-2.3s4.2,0.8,5.8,2.3c1.6,1.5,2.3,3.4,2.3,5.7C1396.9,469.3,1396.1,471.2,1394.5,472.8z M1392.6,463.1
			c-1-1.1-2.3-1.6-3.9-1.6s-2.8,0.5-3.9,1.6c-1,1.1-1.6,2.4-1.6,3.9s0.5,2.9,1.6,3.9c1,1.1,2.3,1.6,3.9,1.6s2.8-0.5,3.9-1.6
			c1-1.1,1.6-2.4,1.6-3.9S1393.7,464.2,1392.6,463.1z"/>
		<path class="st4" d="M1410.7,474.9h-2.6v-15.4h4l4.6,9.7l4.6-9.7h4v15.4h-2.6v-12l-5.4,10.7h-1.5l-5.3-10.7V474.9z"/>
	</g>
	<g>
		<polygon class="st1" points="688.3,361.7 634,361.7 641.2,355.4 564.2,368.3 618.5,368.3 611.3,374.5 		"/>
		<polygon class="st1" points="729.9,358.7 663.7,334.8 674.5,332.1 576.2,310.2 642.4,334.1 631.6,336.8 		"/>
		<polygon class="st1" points="729.9,366.8 663.7,390.8 674.5,393.5 576.2,415.3 642.4,391.4 631.6,388.7 		"/>
	</g>
	<g>
		<polygon class="st1" points="1999.7,361.7 2054,361.7 2046.8,355.4 2123.8,368.3 2069.5,368.3 2076.7,374.5 		"/>
		<polygon class="st1" points="1958.1,358.7 2024.3,334.8 2013.5,332.1 2111.8,310.2 2045.6,334.1 2056.4,336.8 		"/>
		<polygon class="st1" points="1958.1,366.8 2024.3,390.8 2013.5,393.5 2111.8,415.3 2045.6,391.4 2056.4,388.7 		"/>
	</g>
</g>
</svg>
